<?xml version="1.0" encoding="UTF-8"?>
<svg id="Camada_2" data-name="Camada 2" xmlns="http://www.w3.org/2000/svg" viewBox="0 0 700 300">
  <defs>
    <style>
      .cls-1 {
        fill: #2d5fff;
      }

      .cls-1, .cls-2, .cls-3, .cls-4, .cls-5 {
        stroke-width: 0px;
      }

      .cls-2 {
        fill: #05e191;
      }

      .cls-3 {
        fill: #081f2c;
      }

      .cls-4 {
        fill: #fff;
      }

      .cls-5 {
        fill: #00a9e0;
      }
    </style>
  </defs>
  <g id="Emblema_Mono_2" data-name="Emblema Mono 2">
    <g>
      <path class="cls-3" d="M550.16,300H149.84c-82.75,0-149.84-67.09-149.84-149.84v-.32C0,67.09,67.09,0,149.84,0h550.16s0,150.16,0,150.16c0,82.75-67.09,149.84-149.84,149.84Z"/>
      <g>
        <rect class="cls-4" x="534.5" y="88" width="28" height="148"/>
        <path class="cls-4" d="M467.14,121c-34.78,0-58.14,23.51-58.14,58.51s24.65,59.49,58.61,59.49c20.43,0,35.18-5.59,47.69-18.1l-13.96-15.95c-7.41,6.88-16.02,11.42-32.79,11.42-17.82,0-30.3-10.76-33.37-28.77l-.2-1.17h85.56c.89-4.44,1.46-7.76,1.46-11.55,0-32.22-22.05-53.86-54.86-53.86ZM435.56,168.24l.34-1.26c4.04-15.02,15.47-23.29,32.18-23.29s28.09,9.21,29.39,23.46l.1,1.09h-62.01Z"/>
        <path class="cls-4" d="M380.17,239c6.57,0,16.42-1.26,26.33-7.18l-4.72-21.07c-5,1.72-10.6,3.42-15.56,3.42-7.61,0-11.58-4.65-11.8-13.81v-56.85s25.93,0,25.93,0v-22.51h-25.93v-33h-27.92v113.97c0,30.6,18.31,37.03,33.67,37.03Z"/>
        <g id="i">
          <path class="cls-4" d="M313.69,128c-6.17,0-11.19,4.58-11.19,10.21v97.79h28v-108h-16.81Z"/>
          <path class="cls-4" d="M319.5,116c6.07,0,11-4.93,11-11v-17h-28v28h17Z"/>
        </g>
        <g id="c">
          <path class="cls-5" d="M264.8,194.37c-10.09,8.5-23.1,13.63-37.3,13.63s-27.21-5.13-37.3-13.63l-22.7,22.7c15.92,14.25,36.95,22.93,60,22.93s44.08-8.67,60-22.93l-22.7-22.7Z"/>
          <path class="cls-1" d="M183.13,187.3c-8.5-10.09-13.63-23.1-13.63-37.3s5.13-27.21,13.63-37.3l-22.7-22.7c-14.25,15.92-22.93,36.95-22.93,60s8.67,44.08,22.93,60l22.7-22.7Z"/>
          <path class="cls-2" d="M190.2,105.63c10.09-8.5,23.1-13.63,37.3-13.63s27.21,5.13,37.3,13.63l22.7-22.7c-15.92-14.25-36.95-22.93-60-22.93s-44.08,8.67-60,22.93l22.7,22.7Z"/>
        </g>
      </g>
    </g>
  </g>
</svg>